<?xml version="1.0" standalone="no"?>
<!DOCTYPE svg PUBLIC "-//W3C//DTD SVG 20010904//EN"
 "http://www.w3.org/TR/2001/REC-SVG-20010904/DTD/svg10.dtd">
<svg version="1.0" xmlns="http://www.w3.org/2000/svg"
 width="508.000000pt" height="693.000000pt" viewBox="0 0 508.000000 693.000000"
 preserveAspectRatio="xMidYMid meet">

<g transform="translate(0.000000,693.000000) scale(0.100000,-0.100000)"
fill="#000000" stroke="none">
<path d="M2383 6390 c-1305 -295 -2375 -539 -2377 -541 -3 -3 145 -675 189
-855 5 -23 -50 -34 970 197 242 54 872 196 1400 315 1908 428 2380 536 2391
547 7 7 -184 859 -194 868 -4 3 -1075 -236 -2379 -531z m2467 92 c51 -226 91
-415 88 -418 -3 -3 -125 -32 -269 -65 l-264 -59 -145 147 c-351 356 -550 567
-543 573 4 4 116 31 248 60 132 29 249 58 260 63 31 16 519 125 526 118 4 -3
48 -192 99 -419z m-1676 -382 c268 -277 340 -357 327 -362 -9 -4 -106 -27
-216 -52 -110 -24 -211 -47 -225 -50 -22 -6 -60 30 -368 348 -189 195 -343
358 -343 362 0 9 437 113 463 110 10 0 172 -161 362 -356z m-1370 -306 c191
-196 345 -359 342 -361 -2 -2 -128 -32 -281 -67 l-277 -63 -344 355 c-189 195
-344 357 -344 361 0 7 502 127 542 130 9 0 164 -151 362 -355z m-1366 -412
c146 -150 263 -274 261 -276 -4 -4 -483 -114 -486 -112 -2 2 -166 721 -179
786 -4 20 10 9 67 -50 39 -41 191 -198 337 -348z"/>
<path d="M202 3343 l-2 -1613 2440 0 2440 0 0 1610 c0 1098 -3 1610 -10 1610
-7 0 -10 -143 -8 -440 l3 -440 -447 0 c-246 0 -449 3 -452 8 -2 4 -478 7
-1058 6 -579 -2 -1468 0 -1975 3 l-923 6 -3 431 c-1 237 -3 -295 -5 -1181z
m3178 47 l0 -450 -222 0 -221 0 39 28 c93 68 147 162 165 287 26 191 -57 352
-226 432 -94 44 -167 57 -295 50 -115 -7 -194 -24 -282 -64 l-58 -26 0 -94 0
-95 33 22 c53 35 148 77 205 89 147 31 300 -3 369 -82 51 -59 66 -112 61 -224
-3 -84 -7 -105 -30 -143 -14 -25 -37 -55 -50 -67 -34 -32 -116 -70 -178 -82
-84 -17 -351 -31 -582 -31 l-208 0 0 450 0 450 740 0 740 0 0 -450z m1670 0
l0 -450 -737 2 -738 3 -3 448 -2 447 740 0 740 0 0 -450z m-3340 -5 l0 -445
-742 2 -743 3 -3 443 -2 442 745 0 745 0 0 -445z m1102 -633 c77 -31 149 -98
178 -164 33 -75 33 -201 0 -276 -29 -67 -111 -143 -188 -174 -49 -19 -75 -23
-187 -23 -152 0 -235 21 -336 87 -33 21 -62 38 -64 38 -3 0 -5 -45 -5 -101 l0
-100 63 -30 c84 -39 195 -59 325 -59 137 0 226 19 329 70 151 75 246 198 274
354 23 137 -8 268 -87 356 l-46 50 996 0 996 0 0 -455 0 -455 -2420 0 -2420 0
0 455 0 455 1268 -2 1267 -3 57 -23z"/>
<path d="M780 4945 c0 -4 315 -524 454 -750 l62 -100 427 -3 c262 -1 427 1
427 7 0 5 -115 199 -256 430 l-256 421 -429 0 c-236 0 -429 -2 -429 -5z"/>
<path d="M2282 4912 c13 -22 129 -213 258 -425 l235 -387 431 0 432 0 -256
423 -257 422 -433 3 -433 2 23 -38z"/>
<path d="M3678 4918 c11 -18 126 -208 257 -423 130 -214 240 -393 244 -398 4
-4 199 -6 434 -5 l427 3 -163 270 c-90 149 -206 340 -258 425 l-94 155 -433 3
-434 2 20 -32z"/>
</g>
</svg>
